<svg width="22" height="22" viewBox="0 0 22 22" fill="none" xmlns="http://www.w3.org/2000/svg">
<g clip-path="url(#clip0_3515_54193)">
<path d="M1.50017 2.68749C1.50017 2.37254 1.62528 2.0705 1.84797 1.84781C2.07067 1.62511 2.37271 1.5 2.68765 1.5H7.4376C7.75254 1.5 8.05458 1.62511 8.27727 1.84781C8.49997 2.0705 8.62508 2.37254 8.62508 2.68749V7.43743C8.62508 7.75237 8.49997 8.05441 8.27727 8.27711C8.05458 8.4998 7.75254 8.62491 7.4376 8.62491H2.68765C2.37271 8.62491 2.07067 8.4998 1.84797 8.27711C1.62528 8.05441 1.50017 7.75237 1.50017 7.43743V2.68749Z" stroke="#1E3862" stroke-width="1.5" stroke-linecap="round" stroke-linejoin="round"/>
<path d="M1.50017 14.5625C1.50017 14.2475 1.62528 13.9455 1.84797 13.7228C2.07067 13.5001 2.37271 13.375 2.68765 13.375H7.4376C7.75254 13.375 8.05458 13.5001 8.27727 13.7228C8.49997 13.9455 8.62508 14.2475 8.62508 14.5625V19.3124C8.62508 19.6274 8.49997 19.9294 8.27727 20.1521C8.05458 20.3748 7.75254 20.4999 7.4376 20.4999H2.68765C2.37271 20.4999 2.07067 20.3748 1.84797 20.1521C1.62528 19.9294 1.50017 19.6274 1.50017 19.3124V14.5625Z" stroke="#1E3862" stroke-width="1.5" stroke-linecap="round" stroke-linejoin="round"/>
<path d="M13.3749 14.5625C13.3749 14.2475 13.5 13.9455 13.7227 13.7228C13.9454 13.5001 14.2475 13.375 14.5624 13.375H19.3123C19.6273 13.375 19.9293 13.5001 20.152 13.7228C20.3747 13.9455 20.4998 14.2475 20.4998 14.5625V19.3124C20.4998 19.6274 20.3747 19.9294 20.152 20.1521C19.9293 20.3748 19.6273 20.4999 19.3123 20.4999H14.5624C14.2475 20.4999 13.9454 20.3748 13.7227 20.1521C13.5 19.9294 13.3749 19.6274 13.3749 19.3124V14.5625Z" stroke="#1E3862" stroke-width="1.5" stroke-linecap="round" stroke-linejoin="round"/>
<path d="M13.3749 5.0625H20.4998" stroke="#1E3862" stroke-width="1.5" stroke-linecap="round" stroke-linejoin="round"/>
<path d="M16.9374 1.5V8.62491" stroke="#1E3862" stroke-width="1.5" stroke-linecap="round" stroke-linejoin="round"/>
</g>
<defs>
<clipPath id="clip0_3515_54193">
<rect width="22" height="22" fill="white"/>
</clipPath>
</defs>
</svg>
