<svg width="22" height="22" viewBox="0 0 22 22" fill="none" xmlns="http://www.w3.org/2000/svg">
<path d="M4.18291 16.1123C4.18291 17.2396 4.94981 18.1573 5.88714 18.1573C6.31284 18.1507 6.71696 17.9688 7.00426 17.6546C7.18596 17.465 7.50474 17.5432 7.57806 17.7954C7.61209 17.9124 7.58111 18.0387 7.49678 18.1267C7.08097 18.5753 6.4988 18.8329 5.88714 18.839C4.57148 18.839 3.50122 17.6154 3.50122 16.1123C3.50122 14.6091 4.57148 13.3855 5.88714 13.3855C6.4988 13.3916 7.08097 13.6492 7.49678 14.0979C7.67848 14.2875 7.58683 14.6026 7.3318 14.6652C7.21345 14.6942 7.08858 14.6579 7.00426 14.57C6.71696 14.2557 6.31284 14.0739 5.88714 14.0672C4.94981 14.0672 4.18291 14.9849 4.18291 16.1123ZM11.212 15.699C10.3147 15.4434 9.92701 15.2806 9.98325 14.8401C9.99847 14.6162 10.1165 14.412 10.3028 14.287C10.8354 13.9266 11.9022 14.0962 12.2678 14.1925C12.5241 14.2484 12.7449 14.0059 12.6652 13.7559C12.631 13.6487 12.546 13.5652 12.4382 13.5329C12.1453 13.4615 11.8468 13.4156 11.546 13.3957C10.8541 13.3497 10.307 13.4596 9.91848 13.7212C9.57036 13.9576 9.34502 14.3362 9.30326 14.7549C9.16863 15.8191 10.1946 16.1182 11.0194 16.3543C11.9789 16.6312 12.4228 16.8221 12.3521 17.3717C12.335 17.6043 12.2122 17.8163 12.0189 17.9469C11.4847 18.3022 10.4332 18.1216 10.0736 18.0219C9.82363 17.942 9.58098 18.1627 9.63678 18.419C9.66461 18.5469 9.76315 18.6475 9.89036 18.678C10.2858 18.7816 10.6925 18.8357 11.1012 18.839C11.5426 18.839 12.0241 18.7658 12.3981 18.5178C12.7561 18.2771 12.9882 17.8895 13.0313 17.4603C13.1846 16.2691 12.0445 15.9419 11.212 15.699ZM18.2717 13.4051C18.0946 13.3419 17.8997 13.4342 17.8363 13.6113L16.4533 17.485L15.0704 13.6113C14.9818 13.364 14.6588 13.3053 14.4889 13.5057C14.41 13.5986 14.3868 13.7266 14.4279 13.8414L16.1321 18.6132C16.2198 18.8605 16.5423 18.9202 16.7126 18.7206C16.7397 18.6889 16.7607 18.6525 16.7746 18.6132L18.4788 13.8414C18.5425 13.6637 18.4497 13.4681 18.2717 13.4051ZM18.4984 8.27283V10.3179C18.4984 10.5803 18.2144 10.7443 17.9871 10.6131C17.8817 10.5522 17.8167 10.4397 17.8167 10.3179V8.61368H13.3857C13.1975 8.61367 13.0449 8.46107 13.0449 8.27283V3.84184H5.20545C5.0172 3.84184 4.8646 3.99444 4.8646 4.18269V10.3179C4.8646 10.5803 4.58056 10.7443 4.35333 10.6131C4.24788 10.5522 4.18291 10.4397 4.18291 10.3179V4.18269C4.18291 3.61794 4.6407 3.16013 5.20545 3.16016H13.3857C13.4762 3.16009 13.5629 3.19595 13.6269 3.25986L18.3987 8.03169C18.4626 8.09566 18.4985 8.18241 18.4984 8.27283ZM17.3344 7.93199L13.7266 4.32329V7.93199H17.3344Z" fill="black" stroke="black" stroke-width="0.6"/>
</svg>
