<svg width="22" height="22" viewBox="0 0 22 22" fill="none" xmlns="http://www.w3.org/2000/svg">
<g clip-path="url(#clip0_3515_51155)">
<path d="M1.5 5.3C1.5 6.30782 1.90036 7.27437 2.61299 7.98701C3.32563 8.69964 4.29218 9.1 5.3 9.1C6.30782 9.1 7.27437 8.69964 7.98701 7.98701C8.69964 7.27437 9.1 6.30782 9.1 5.3C9.1 4.29218 8.69964 3.32563 7.98701 2.61299C7.27437 1.90036 6.30782 1.5 5.3 1.5C4.29218 1.5 3.32563 1.90036 2.61299 2.61299C1.90036 3.32563 1.5 4.29218 1.5 5.3Z" stroke="#1E3862" stroke-width="1.5"/>
<path d="M12.9 5.3C12.9 6.30782 13.3004 7.27437 14.013 7.98701C14.7256 8.69964 15.6922 9.1 16.7 9.1C17.7078 9.1 18.6744 8.69964 19.387 7.98701C20.0996 7.27437 20.5 6.30782 20.5 5.3C20.5 4.29218 20.0996 3.32563 19.387 2.61299C18.6744 1.90036 17.7078 1.5 16.7 1.5C15.6922 1.5 14.7256 1.90036 14.013 2.61299C13.3004 3.32563 12.9 4.29218 12.9 5.3Z" stroke="#1E3862" stroke-width="1.5"/>
<path d="M1.5 16.6999C1.5 17.7077 1.90036 18.6743 2.61299 19.3869C3.32563 20.0995 4.29218 20.4999 5.3 20.4999C6.30782 20.4999 7.27437 20.0995 7.98701 19.3869C8.69964 18.6743 9.1 17.7077 9.1 16.6999C9.1 15.6921 8.69964 14.7255 7.98701 14.0129C7.27437 13.3003 6.30782 12.8999 5.3 12.8999C4.29218 12.8999 3.32563 13.3003 2.61299 14.0129C1.90036 14.7255 1.5 15.6921 1.5 16.6999Z" stroke="#1E3862" stroke-width="1.5"/>
<path d="M12.9 16.6999C12.9 17.7077 13.3004 18.6743 14.013 19.3869C14.7256 20.0995 15.6922 20.4999 16.7 20.4999C17.7078 20.4999 18.6744 20.0995 19.387 19.3869C20.0996 18.6743 20.5 17.7077 20.5 16.6999C20.5 15.6921 20.0996 14.7255 19.387 14.0129C18.6744 13.3003 17.7078 12.8999 16.7 12.8999C15.6922 12.8999 14.7256 13.3003 14.013 14.0129C13.3004 14.7255 12.9 15.6921 12.9 16.6999Z" stroke="#1E3862" stroke-width="1.5"/>
</g>
<defs>
<clipPath id="clip0_3515_51155">
<rect width="22" height="22" fill="white"/>
</clipPath>
</defs>
</svg>
