<svg width="44" height="44" viewBox="0 0 44 44" fill="none" xmlns="http://www.w3.org/2000/svg">
<path d="M28.0042 30.3333C27.6005 32.756 27.0303 34.9203 26.3375 36.7217C25.6267 38.5702 24.8198 39.9523 24.0102 40.8428C23.201 41.7325 22.5193 42 22 42C21.4807 42 20.799 41.7325 19.9898 40.8428C19.1802 39.9523 18.3734 38.5702 17.6624 36.7217C16.9697 34.9203 16.3995 32.756 15.9958 30.3333H28.0042ZM12.6217 30.3333C13.0608 33.1722 13.7166 35.7473 14.5521 37.9197C15.0002 39.0845 15.5119 40.1592 16.082 41.1097C10.626 39.422 6.17337 35.4598 3.81967 30.3333H12.6217ZM40.1803 30.3333C37.8263 35.4603 33.373 39.4222 27.9163 41.1097C28.4867 40.159 28.9997 39.0848 29.448 37.9197C30.2833 35.7473 30.9392 33.1722 31.3783 30.3333H40.1803ZM12.2197 17C12.0777 18.6133 12 20.2868 12 22C12 23.7132 12.0777 25.3867 12.2197 27H2.62988C2.21857 25.4018 2 23.7265 2 22C2 20.2735 2.21857 18.5981 2.62988 17H12.2197ZM28.4355 17C28.5853 18.596 28.6667 20.2703 28.6667 22C28.6667 23.7297 28.5853 25.404 28.4355 27H15.5644C15.4146 25.404 15.3333 23.7297 15.3333 22C15.3333 20.2703 15.4146 18.596 15.5644 17H28.4355ZM41.3702 17C41.7815 18.5981 42 20.2735 42 22C42 23.7265 41.7815 25.4018 41.3702 27H31.7803C31.9223 25.3867 32 23.7132 32 22C32 20.2868 31.9223 18.6133 31.7803 17H41.3702ZM16.082 2.88867C15.5116 3.83952 15.0004 4.91495 14.5521 6.0804C13.7166 8.25262 13.0608 10.8278 12.6217 13.6667H3.81967C6.17343 8.53998 10.6258 4.57632 16.082 2.88867ZM22 2C22.5193 2 23.201 2.26748 24.0102 3.15723C24.8198 4.04768 25.6267 5.4299 26.3375 7.27832C27.0303 9.0796 27.6005 11.2439 28.0042 13.6667H15.9958C16.3995 11.2439 16.9697 9.0796 17.6624 7.27832C18.3734 5.4299 19.1802 4.04768 19.9898 3.15723C20.799 2.26748 21.4807 2 22 2ZM27.9163 2.88867C33.3732 4.57605 37.8263 8.53952 40.1803 13.6667H31.3783C30.9392 10.8278 30.2833 8.25262 29.448 6.0804C28.9995 4.91467 28.4868 3.83968 27.9163 2.88867Z" fill="#1E3862"/>
</svg>
