<svg width="22" height="22" viewBox="0 0 22 22" fill="none" xmlns="http://www.w3.org/2000/svg">
<path d="M13.3135 1.52217C14.1051 1.53845 14.7023 2.23693 14.6091 3.02317L14.5032 3.92069C14.4643 4.25082 14.3056 4.55519 14.0572 4.77608C13.8088 4.99696 13.488 5.119 13.1556 5.11905H8.84439C8.5119 5.11911 8.19096 4.99713 7.94246 4.77623C7.69396 4.55533 7.5352 4.25089 7.49629 3.92069L7.39044 3.02317C7.2977 2.23693 7.89484 1.53845 8.68651 1.52217C9.37413 1.50814 10.1432 1.5 11.0004 1.5C11.8572 1.5 12.6254 1.50814 13.3135 1.52217Z" stroke="#1E3862" stroke-width="1.5" stroke-linecap="round" stroke-linejoin="round"/>
<path d="M7.38186 2.91284C6.15591 2.95446 5.22129 3.01372 4.52733 3.07208C3.48731 3.16029 2.71057 3.92979 2.62191 4.96982C2.51333 6.24056 2.40476 8.34684 2.40476 11.6786C2.40476 15.01 2.51333 17.1162 2.62191 18.3874C2.71057 19.4275 3.48731 20.197 4.52779 20.2847C5.78812 20.3915 7.8451 20.5001 11 20.5001C14.1549 20.5001 16.2119 20.3915 17.4722 20.2847C18.5127 20.1965 19.2894 19.4275 19.3781 18.3874C19.4867 17.1162 19.5952 15.01 19.5952 11.6786C19.5952 8.34684 19.4867 6.24056 19.3781 4.96982C19.2894 3.92934 18.5127 3.16029 17.4722 3.07208C16.7787 3.01327 15.8436 2.95446 14.6177 2.91284" stroke="#1E3862" stroke-width="1.5" stroke-linecap="round" stroke-linejoin="round"/>
</svg>
