<svg width="22" height="22" viewBox="0 0 22 22" fill="none" xmlns="http://www.w3.org/2000/svg">
<g clip-path="url(#clip0_3515_54223)">
<path d="M9.22505 2.13077C10.2589 1.28974 11.7411 1.28974 12.7749 2.13077L13.2688 2.53255L13.8974 2.43155C15.2133 2.22013 16.4969 2.9612 16.9717 4.20648L17.1986 4.8014L17.7935 5.02824C19.0387 5.50307 19.7799 6.78666 19.5684 8.10251L19.4673 8.73115L19.8693 9.22505C20.7102 10.2589 20.7102 11.7411 19.8693 12.7749L19.4673 13.2688L19.5684 13.8974C19.7799 15.2133 19.0387 16.4969 17.7935 16.9718L17.1986 17.1986L16.9717 17.7934C16.4969 19.0388 15.2133 19.7798 13.8974 19.5684L13.2688 19.4674L12.7749 19.8692C11.7411 20.7103 10.2589 20.7103 9.22505 19.8692L8.73113 19.4674L8.10251 19.5684C6.78666 19.7798 5.50307 19.0388 5.02824 17.7934L4.80138 17.1986L4.20648 16.9718C2.96121 16.4969 2.22013 15.2133 2.43155 13.8974L2.53255 13.2688L2.13077 12.7749C1.28974 11.7411 1.28974 10.2589 2.13077 9.22505L2.53255 8.73115L2.43155 8.10251C2.22013 6.78666 2.96121 5.50307 4.20648 5.02824L4.80138 4.8014L5.02824 4.20648C5.50307 2.9612 6.78666 2.22013 8.10251 2.43155L8.73113 2.53255L9.22505 2.13077Z" stroke="#1E3862" stroke-width="1.5" stroke-linecap="round" stroke-linejoin="round"/>
<path d="M7.28957 14.7104L14.7104 7.28955" stroke="#1E3862" stroke-width="1.5" stroke-linecap="round" stroke-linejoin="round"/>
<path d="M8.03165 8.77372C8.44149 8.77372 8.77374 8.44147 8.77374 8.03163C8.77374 7.6218 8.44149 7.28955 8.03165 7.28955C7.62182 7.28955 7.28957 7.6218 7.28957 8.03163C7.28957 8.44147 7.62182 8.77372 8.03165 8.77372Z" stroke="#1E3862" stroke-width="1.5" stroke-linecap="round" stroke-linejoin="round"/>
<path d="M13.9683 14.7102C14.3782 14.7102 14.7104 14.378 14.7104 13.9682C14.7104 13.5583 14.3782 13.2261 13.9683 13.2261C13.5585 13.2261 13.2262 13.5583 13.2262 13.9682C13.2262 14.378 13.5585 14.7102 13.9683 14.7102Z" stroke="#1E3862" stroke-width="1.5" stroke-linecap="round" stroke-linejoin="round"/>
</g>
<defs>
<clipPath id="clip0_3515_54223">
<rect width="22" height="22" fill="white"/>
</clipPath>
</defs>
</svg>
