<svg width="22" height="22" viewBox="0 0 22 22" fill="none" xmlns="http://www.w3.org/2000/svg">
<g clip-path="url(#clip0_3515_54117)">
<path d="M1.5 11C1.5 6.52165 1.5 4.28248 2.89125 2.89125C4.28248 1.5 6.52165 1.5 11 1.5C15.4783 1.5 17.7175 1.5 19.1087 2.89125C20.5 4.28248 20.5 6.52165 20.5 11C20.5 15.4783 20.5 17.7175 19.1087 19.1087C17.7175 20.5 15.4783 20.5 11 20.5C6.52165 20.5 4.28248 20.5 2.89125 19.1087C1.5 17.7175 1.5 15.4783 1.5 11Z" stroke="#1E3862" stroke-width="1.5"/>
<path d="M15.75 1.5V7.96722C15.75 8.8934 15.75 9.3565 15.6273 9.63267C15.3477 10.2621 14.658 10.6015 13.9887 10.439C13.695 10.3677 13.3281 10.0852 12.5942 9.52009C12.1799 9.20108 11.9728 9.04158 11.7571 8.94786C11.2741 8.73804 10.7258 8.73804 10.2428 8.94786C10.0272 9.04158 9.81996 9.20108 9.40566 9.52009C8.67179 10.0852 8.30487 10.3677 8.01117 10.439C7.3419 10.6015 6.6522 10.2621 6.37264 9.63267C6.24995 9.3565 6.24995 8.8934 6.24995 7.96722V1.5" stroke="#1E3862" stroke-width="1.5"/>
</g>
<defs>
<clipPath id="clip0_3515_54117">
<rect width="22" height="22" fill="white"/>
</clipPath>
</defs>
</svg>
