<svg width="22" height="22" viewBox="0 0 22 22" fill="none" xmlns="http://www.w3.org/2000/svg">
<path d="M18.5 13.7823C18.5 13.9744 18.3474 14.1301 18.1591 14.1301H15.7727V16.217H17.4773C17.7397 16.217 17.9037 16.5068 17.7725 16.7387C17.7116 16.8463 17.5991 16.9126 17.4773 16.9126H15.7727V18.6517C15.7727 18.9194 15.4886 19.0868 15.2614 18.9529C15.1559 18.8908 15.0909 18.7759 15.0909 18.6517V13.7823C15.0909 13.5902 15.2435 13.4344 15.4318 13.4344H18.1591C18.3474 13.4344 18.5 13.5902 18.5 13.7823ZM7.25 15.5213C7.25 16.6739 6.33418 17.6082 5.20455 17.6082H4.18182V18.6517C4.18182 18.9194 3.89773 19.0868 3.67046 18.9529C3.56498 18.8908 3.5 18.7759 3.5 18.6517V13.7823C3.5 13.5902 3.65263 13.4344 3.84091 13.4344H5.20455C6.33418 13.4345 7.25 14.3688 7.25 15.5213ZM6.56818 15.5213C6.56818 14.753 5.95766 14.1301 5.20455 14.1301H4.18182V16.9126H5.20455C5.95766 16.9126 6.56818 16.2897 6.56818 15.5213ZM13.3864 16.217C13.3864 17.7537 12.1653 18.9995 10.6591 18.9995H9.29545C9.10717 18.9995 8.95454 18.8438 8.95454 18.6517V13.7823C8.95454 13.5902 9.10717 13.4344 9.29545 13.4344H10.6591C12.1653 13.4344 13.3864 14.6802 13.3864 16.217ZM12.7045 16.217C12.7045 15.0644 11.7887 14.1301 10.6591 14.1301H9.63636V18.3039H10.6591C11.7887 18.3038 12.7045 17.3695 12.7045 16.217ZM3.5 10.3041V4.04344C3.5 3.46715 3.95787 2.99997 4.52273 3H12.7045C12.795 2.99993 12.8818 3.03652 12.9457 3.10174L17.7185 7.97115C17.7824 8.03643 17.8183 8.12495 17.8182 8.21722V10.3041C17.8182 10.5719 17.5341 10.7392 17.3068 10.6053C17.2013 10.5432 17.1364 10.4284 17.1364 10.3041V8.56504H12.7045C12.5163 8.56504 12.3636 8.40931 12.3636 8.21722V3.69563H4.52273C4.33444 3.69562 4.18182 3.85134 4.18182 4.04344V10.3041C4.18182 10.5719 3.89773 10.7392 3.67046 10.6053C3.56498 10.5432 3.5 10.4284 3.5 10.3041ZM13.0455 7.86941H16.654L13.0455 4.18692V7.86941Z" fill="black" stroke="black" stroke-width="0.6"/>
</svg>
