<svg width="22" height="22" viewBox="0 0 22 22" fill="none" xmlns="http://www.w3.org/2000/svg">
<g clip-path="url(#clip0_3515_54087)">
<path d="M16.5523 5.4477C16.5523 5.4477 16.1413 7.58 13.7604 9.96081C11.3796 12.3417 9.24772 12.7523 9.24772 12.7523M18.9871 15.1871C16.9701 17.2043 13.6997 17.2043 11.6826 15.1871L6.81282 10.3174C4.7957 8.30034 4.7957 5.02995 6.81282 3.01284C8.82993 0.99572 12.1003 0.99572 14.1174 3.01284L18.9871 7.88258C21.0043 9.89972 21.0043 13.1701 18.9871 15.1871Z" stroke="#1E3862" stroke-width="1.5"/>
<path d="M13.375 5.7751L11.95 4.3501" stroke="#1E3862" stroke-width="1.5" stroke-linecap="round"/>
<path d="M5.99372 9.22778C3.42505 9.78125 1.5 12.0658 1.5 14.7999C1.5 17.9479 4.05198 20.4999 7.20001 20.4999C9.94656 20.4999 12.2394 18.5574 12.7796 15.9713" stroke="#1E3862" stroke-width="1.5"/>
</g>
<defs>
<clipPath id="clip0_3515_54087">
<rect width="22" height="22" fill="white"/>
</clipPath>
</defs>
</svg>
