<svg width="44" height="44" viewBox="0 0 44 44" fill="none" xmlns="http://www.w3.org/2000/svg">
<path d="M13.5293 17.7948C13.5001 17.2882 13.4995 16.6084 13.4995 15.6149V2.13748C15.8111 2 18.5988 2 21.9996 2C25.4004 2 28.188 2 30.4996 2.13748V15.6149C30.4996 16.6084 30.499 17.2882 30.4698 17.7948C30.4396 18.3199 30.3842 18.4813 30.3704 18.5123C30.0762 19.1749 29.3502 19.5321 28.6456 19.3611C28.6128 19.3531 28.451 19.2983 28.0166 19.0021C27.5974 18.7161 27.0584 18.3017 26.2712 17.6957L26.1372 17.5924C25.3968 17.0216 24.8198 16.5767 24.1912 16.3036C22.7932 15.6963 21.206 15.6963 19.808 16.3036C19.1794 16.5767 18.6024 17.0216 17.8619 17.5924L17.7279 17.6957C16.9408 18.3017 16.4018 18.7161 15.9825 19.0021C15.5481 19.2983 15.3864 19.3531 15.3534 19.3611C14.6489 19.5321 13.9229 19.1749 13.6287 18.5123C13.6149 18.4813 13.5596 18.3199 13.5293 17.7948Z" fill="#1E3862"/>
<path d="M21.9999 42.0012C12.5717 42.0012 7.85766 42.0012 4.92872 39.0723C1.99976 36.1436 1.99976 31.4295 1.99976 22.0016C1.99976 12.5737 1.99976 7.85978 4.92872 4.93092C6.29679 3.56287 8.05434 2.83382 10.4998 2.44531V15.6638C10.4998 16.5989 10.4998 17.3659 10.5346 17.9695C10.5689 18.5649 10.6427 19.1815 10.8872 19.7321C11.7701 21.7197 13.9481 22.7914 16.0616 22.2782C16.647 22.1362 17.1807 21.8184 17.6733 21.4825C18.1727 21.1417 18.7805 20.6737 19.5215 20.1033L19.5585 20.0747C20.4973 19.3519 20.7615 19.1625 21.0037 19.0571C21.6391 18.7811 22.3607 18.7811 22.9961 19.0571C23.2383 19.1625 23.5025 19.3519 24.4413 20.0747L24.4783 20.1033C25.2193 20.6737 25.8271 21.1417 26.3265 21.4825C26.8191 21.8184 27.3528 22.1362 27.9382 22.2782C30.0518 22.7914 32.2298 21.7197 33.1126 19.7321C33.3572 19.1815 33.431 18.5649 33.4652 17.9695C33.5 17.366 33.5 16.5989 33.5 15.6638V2.44531C35.9454 2.83382 37.703 3.56287 39.071 4.93092C42.0001 7.85978 42.0001 12.5737 42.0001 22.0016C42.0001 31.4295 42.0001 36.1436 39.071 39.0723C36.1422 42.0012 31.428 42.0012 21.9999 42.0012Z" fill="#1E3862"/>
</svg>
