<svg width="22" height="22" viewBox="0 0 22 22" fill="none" xmlns="http://www.w3.org/2000/svg">
<path d="M1.87744 11.8772C4.66797 8.56332 7.20326 6.65519 8.35994 5.87136C8.73805 5.61469 9.23663 5.6985 9.52377 6.05375C10.0692 6.73319 10.5948 7.42825 11.1 8.13807C11.4848 8.67713 12.2967 8.69427 12.7229 8.1876C14.6924 5.84851 17.3544 3.5437 17.3544 3.5437" stroke="#1E3862" stroke-width="1.85" stroke-linecap="round" stroke-linejoin="round"/>
<path d="M19.6759 4.88799C19.9921 3.34749 19.9888 1.98937 19.9621 1.34983C19.9585 1.24117 19.9138 1.13792 19.837 1.061C19.7601 0.984072 19.6569 0.939226 19.5483 0.935539C18.3617 0.891248 17.1741 0.987312 16.0101 1.22174C15.6515 1.29507 15.533 1.73365 15.7911 1.99223L18.9054 5.10657C19.1645 5.36515 19.6026 5.2461 19.6759 4.88799Z" fill="#1E3862" stroke="#1E3862" stroke-width="1.85" stroke-linecap="round" stroke-linejoin="round"/>
<path d="M2.00459 20.9058C1.46744 20.8882 1.056 20.5634 1.00172 20.0291C0.958383 19.6101 0.925049 18.9877 0.925049 18.0676C0.925049 17.1476 0.959335 16.5248 1.00124 16.1062C1.056 15.5719 1.46744 15.2471 2.00459 15.229C2.32222 15.2185 2.74746 15.2104 3.30605 15.2104C3.86463 15.2104 4.28987 15.2185 4.6075 15.2295C5.14465 15.2471 5.55609 15.5719 5.61037 16.1062C5.65323 16.5252 5.68704 17.1476 5.68704 18.0676C5.68704 18.9877 5.65276 19.6105 5.61085 20.0291C5.55609 20.5634 5.14465 20.8882 4.6075 20.9063C4.2894 20.9167 3.86463 20.9248 3.30605 20.9248C2.74746 20.9248 2.32222 20.9167 2.00459 20.9058Z" stroke="#1E3862" stroke-width="1.85" stroke-linecap="round" stroke-linejoin="round"/>
<path d="M17.3811 20.8935C16.762 20.8554 16.332 20.4087 16.2873 19.7901C16.2263 18.9515 16.1635 17.4329 16.1635 14.7343C16.1635 12.0352 16.2263 10.5171 16.2873 9.67848C16.332 9.0599 16.762 8.61275 17.3811 8.57513C17.6811 8.55656 18.0635 8.5437 18.5444 8.5437C19.0254 8.5437 19.4078 8.55656 19.7078 8.57513C20.3269 8.61323 20.7569 9.0599 20.8016 9.67848C20.8626 10.5171 20.9254 12.0357 20.9254 14.7343C20.9254 17.4334 20.8626 18.9515 20.8016 19.7901C20.7569 20.4087 20.3269 20.8558 19.7078 20.8935C19.4078 20.912 19.0259 20.9249 18.5444 20.9249C18.0635 20.9249 17.6811 20.912 17.3811 20.8935Z" stroke="#1E3862" stroke-width="1.85" stroke-linecap="round" stroke-linejoin="round"/>
<path d="M9.73469 20.9021C9.13277 20.8759 8.69324 20.4735 8.64276 19.8735C8.59086 19.2554 8.54419 18.2516 8.54419 16.6392C8.54419 15.0267 8.59086 14.0229 8.64276 13.4048C8.69324 12.8048 9.13277 12.4024 9.73421 12.3762C10.131 12.3599 10.5281 12.3523 10.9252 12.3534C11.4214 12.3534 11.8119 12.3629 12.1157 12.3762C12.7176 12.4024 13.1571 12.8048 13.2076 13.4048C13.2595 14.0229 13.3062 15.0267 13.3062 16.6392C13.3062 18.2516 13.2595 19.2554 13.2076 19.8735C13.1571 20.4735 12.7176 20.8759 12.1162 20.9021C11.8119 20.9154 11.4214 20.925 10.9252 20.925C10.5282 20.926 10.1313 20.9184 9.73469 20.9021Z" stroke="#1E3862" stroke-width="1.85" stroke-linecap="round" stroke-linejoin="round"/>
</svg>
