<svg width="22" height="22" viewBox="0 0 22 22" fill="none" xmlns="http://www.w3.org/2000/svg">
<path d="M2.92503 10.05V12.9C2.92503 16.4827 2.92503 18.2741 4.03802 19.387C5.15102 20.5 6.94235 20.5 10.525 20.5H11.475C15.0577 20.5 16.8491 20.5 17.962 19.387C19.075 18.2741 19.075 16.4827 19.075 12.9V10.05" stroke="#1E3862" stroke-width="1.5"/>
<path d="M8.62505 1.5H13.375L13.9942 7.6915C14.1713 9.4629 12.7802 11 11 11C9.21983 11 7.82876 9.4629 8.0059 7.6915L8.62505 1.5Z" stroke="#1E3862" stroke-width="1.5"/>
<path d="M2.76325 4.68376C2.93242 3.83788 3.01701 3.41494 3.189 3.0721C3.5514 2.34967 4.20349 1.8151 4.98295 1.60141C5.35287 1.5 5.78418 1.5 6.64681 1.5H8.62501L7.9367 8.38301C7.78814 9.86864 6.53801 11 5.04496 11C3.21103 11 1.83556 9.3222 2.19522 7.52388L2.76325 4.68376Z" stroke="#1E3862" stroke-width="1.5"/>
<path d="M19.2368 4.68376C19.0676 3.83788 18.9829 3.41494 18.811 3.0721C18.4486 2.34967 17.7965 1.8151 17.017 1.60141C16.6471 1.5 16.2158 1.5 15.3532 1.5H13.375L14.0633 8.38301C14.2118 9.86864 15.4619 11 16.9551 11C18.7889 11 20.1644 9.3222 19.8048 7.52388L19.2368 4.68376Z" stroke="#1E3862" stroke-width="1.5"/>
<path d="M8.62503 20.0248V17.1748C8.62503 16.2869 8.62503 15.843 8.81594 15.5123C8.94101 15.2957 9.12093 15.1158 9.33753 14.9908C9.66823 14.7998 10.1122 14.7998 11 14.7998C11.8879 14.7998 12.3318 14.7998 12.6625 14.9908C12.8791 15.1158 13.0591 15.2957 13.1841 15.5123C13.375 15.843 13.375 16.2869 13.375 17.1748V20.0248" stroke="#1E3862" stroke-width="1.5" stroke-linecap="round"/>
</svg>
