<svg width="22" height="22" viewBox="0 0 22 22" fill="none" xmlns="http://www.w3.org/2000/svg">
<path d="M8.80772 13.1929H13.1923" stroke="#1E3862" stroke-width="1.5" stroke-linecap="round" stroke-linejoin="round"/>
<path d="M11 11.0007V15.3853" stroke="#1E3862" stroke-width="1.5" stroke-linecap="round" stroke-linejoin="round"/>
<path d="M19.9648 10.6818C20.2626 9.63935 19.6768 8.5427 18.6245 8.28181C13.6176 7.0405 8.38239 7.0405 3.37551 8.28181C2.32321 8.5427 1.73739 9.63935 2.03523 10.6818L4.00863 17.5887C4.25395 18.4473 5.03872 19.0392 5.93168 19.0392H16.0683C16.9613 19.0392 17.7461 18.4473 17.9914 17.5887L19.9648 10.6818Z" stroke="#1E3862" stroke-width="1.5" stroke-linecap="round" stroke-linejoin="round"/>
<path d="M17.5 7.96069L15.7062 3.9853C15.6097 3.67734 15.414 3.40997 15.1496 3.22489C14.8852 3.03983 14.567 2.94746 14.2446 2.96222H7.69692C7.37453 2.94746 7.05633 3.03983 6.79194 3.22489C6.52756 3.40997 6.33186 3.67734 6.23538 3.9853L4.49998 7.96069" stroke="#1E3862" stroke-width="1.5" stroke-linecap="round" stroke-linejoin="round"/>
</svg>
