<svg width="22" height="22" viewBox="0 0 22 22" fill="none" xmlns="http://www.w3.org/2000/svg">
<path d="M18.0876 5.8427C18.3969 6.01862 18.6538 6.27378 18.8318 6.58193C19.0097 6.89008 19.1023 7.24009 19.1001 7.59593V14.1516C19.1001 14.8798 18.7014 15.5512 18.0579 15.9049L11.9828 19.7479C11.6816 19.9133 11.3436 20 11 20C10.6564 20 10.3183 19.9133 10.0172 19.7479L3.94206 15.9049C3.6272 15.7328 3.36436 15.4793 3.18101 15.1709C2.99767 14.8625 2.90056 14.5104 2.89984 14.1516V7.59503C2.89984 6.86692 3.29854 6.1964 3.94206 5.8427L10.0172 2.26064C10.3273 2.08967 10.6756 2 11.0297 2C11.3838 2 11.7321 2.08967 12.0422 2.26064L18.1173 5.8427H18.0876Z" stroke="#1E3862" stroke-width="1.45" stroke-linecap="round" stroke-linejoin="round"/>
<path d="M8.29985 10.9996C8.29985 11.7157 8.58432 12.4025 9.09068 12.9088C9.59703 13.4152 10.2838 13.6997 10.9999 13.6997C11.716 13.6997 12.4028 13.4152 12.9091 12.9088C13.4155 12.4025 13.6999 11.7157 13.6999 10.9996C13.6999 10.2835 13.4155 9.59674 12.9091 9.09039C12.4028 8.58403 11.716 8.29956 10.9999 8.29956C10.2838 8.29956 9.59703 8.58403 9.09068 9.09039C8.58432 9.59674 8.29985 10.2835 8.29985 10.9996Z" stroke="#1E3862" stroke-width="1.45" stroke-linecap="round" stroke-linejoin="round"/>
</svg>
