<svg width="44" height="44" viewBox="0 0 44 44" fill="none" xmlns="http://www.w3.org/2000/svg">
<path d="M5.54828 5.31128C5.18603 6.0334 5.00787 6.92423 4.65155 8.70589L3.45517 14.688C2.69765 18.4757 5.59468 22.0096 9.45732 22.0096C12.602 22.0096 15.235 19.6267 15.5479 16.4975L15.686 15.1166C15.3597 18.8157 18.2752 22.0096 21.9995 22.0096C25.749 22.0096 28.6789 18.7721 28.3057 15.041L28.4518 16.4975C28.7647 19.6267 31.3977 22.0096 34.5425 22.0096C38.4051 22.0096 41.3022 18.4757 40.5446 14.688L39.3483 8.70589C38.9919 6.92427 38.8137 6.0334 38.4515 5.31128C37.6881 3.78964 36.3147 2.66368 34.673 2.2136C33.8938 2 32.9854 2 31.1686 2H12.8312C11.0143 2 10.1059 2 9.32672 2.2136C7.685 2.66368 6.31156 3.78964 5.54828 5.31128Z" fill="#1E3862"/>
<path d="M34.5428 25.0084C36.1777 25.0084 37.6968 24.5836 39.0078 23.8458V26.0088C39.0078 33.5551 39.0078 37.3281 36.6635 39.6724C34.7765 41.5593 31.9638 41.9275 27.0024 41.9992V35.0134C27.0024 33.1431 27.0024 32.208 26.6002 31.5117C26.3369 31.0553 25.9579 30.6765 25.5017 30.413C24.8052 30.011 23.8701 30.011 22.0001 30.011C20.1301 30.011 19.195 30.011 18.4985 30.413C18.0423 30.6765 17.6634 31.0553 17.3999 31.5117C16.9978 32.208 16.9978 33.1431 16.9978 35.0134V41.9992C12.0365 41.9275 9.22366 41.5593 7.33663 39.6724C4.99243 37.3281 4.99243 33.5551 4.99243 26.0088V23.8456C6.3035 24.5836 7.82249 25.0084 9.45758 25.0084C11.8528 25.0084 14.0489 24.0807 15.686 22.5512C17.3414 24.0721 19.552 25.0084 21.9997 25.0084C24.4476 25.0084 26.6584 24.0719 28.3139 22.5508C29.9511 24.0805 32.1473 25.0084 34.5428 25.0084Z" fill="#1E3862"/>
</svg>
