<svg width="21" height="20" viewBox="0 0 21 20" fill="none" xmlns="http://www.w3.org/2000/svg">
<path d="M5.921 4.7545L8.85 0.95C9.03335 0.716665 9.2466 0.541665 9.48975 0.425C9.73275 0.30833 9.9869 0.25 10.2522 0.25C10.5174 0.25 10.7709 0.30833 11.0125 0.425C11.2541 0.541665 11.4667 0.716665 11.65 0.95L14.579 4.7545L19.025 6.25C19.4083 6.38335 19.7083 6.60925 19.925 6.92775C20.1416 7.24625 20.25 7.5981 20.25 7.98325C20.25 8.1611 20.2248 8.3386 20.1742 8.51575C20.1236 8.6929 20.0405 8.86265 19.925 9.025L17.075 13.1L17.175 17.425C17.175 17.9417 17 18.3792 16.65 18.7375C16.3 19.0959 15.8819 19.275 15.3955 19.275C15.3652 19.275 15.2083 19.25 14.925 19.2L10.25 17.9L5.5805 19.198C5.4935 19.2327 5.4041 19.2542 5.31225 19.2625C5.2204 19.2709 5.13625 19.275 5.05975 19.275C4.5699 19.275 4.15415 19.0942 3.8125 18.7327C3.47085 18.3714 3.30835 17.9271 3.325 17.4L3.425 13.0688L0.575 9C0.4595 8.83615 0.376415 8.6649 0.32575 8.48625C0.27525 8.3074 0.25 8.12865 0.25 7.95C0.25 7.56665 0.357665 7.2199 0.573 6.90975C0.788335 6.59975 1.089 6.37985 1.475 6.25L5.921 4.7545ZM6.825 6.05L1.6 7.8L4.95 12.65L4.825 17.825L10.25 16.325L15.675 17.85L15.55 12.65L18.9 7.85L13.675 6.05L10.25 1.6L6.825 6.05Z" fill="#1E3862" stroke="#1E3862" stroke-width="0.5"/>
</svg>
