<svg width="22" height="22" viewBox="0 0 22 22" fill="none" xmlns="http://www.w3.org/2000/svg">
<path d="M3.51087 18.4833C2.50213 18.4082 1.74082 17.6862 1.64719 16.6784C1.57739 15.8982 1.52852 15.1162 1.50062 14.3334C1.48479 13.915 1.77204 13.5563 2.13392 13.3468C2.54621 13.1093 2.8887 12.7674 3.12692 12.3555C3.36514 11.9437 3.4907 11.4763 3.49097 11.0005C3.49062 10.5247 3.36502 10.0575 3.12681 9.64568C2.88859 9.23388 2.54615 8.89206 2.13392 8.65459C1.77204 8.4447 1.48479 8.08598 1.50062 7.66801C1.53907 6.67284 1.59245 5.9052 1.64673 5.32166C1.74037 4.31428 2.50168 3.59233 3.51042 3.51678C4.85571 3.41636 7.17899 3.31006 11 3.31006C14.821 3.31006 17.1443 3.41591 18.4891 3.51678C19.4979 3.59187 20.2592 4.31383 20.3528 5.32166C20.4071 5.90474 20.46 6.67239 20.4985 7.66711C20.5148 8.08553 20.2271 8.44379 19.8652 8.65368C19.4531 8.89134 19.1108 9.23329 18.8727 9.64516C18.6347 10.057 18.5093 10.5243 18.509 11C18.5093 11.4758 18.6349 11.9432 18.8731 12.3551C19.1114 12.7669 19.4538 13.1088 19.8661 13.3464C20.228 13.5558 20.5152 13.9145 20.4994 14.3325C20.4717 15.1158 20.4229 15.8982 20.3533 16.6788C20.2596 17.6862 19.4983 18.4082 18.4896 18.4837C17.1447 18.5841 14.821 18.69 11.0005 18.69C7.17944 18.69 4.85617 18.5841 3.51133 18.4833H3.51087Z" stroke="#1E3862" stroke-width="1.5" stroke-linejoin="round"/>
<path d="M13.7144 16.8799V18.5762" stroke="#1E3862" stroke-width="1.5" stroke-linecap="round" stroke-linejoin="round"/>
<path d="M13.7144 12.3572V14.1666" stroke="#1E3862" stroke-width="1.5" stroke-linecap="round" stroke-linejoin="round"/>
<path d="M13.7144 7.83325V9.64266" stroke="#1E3862" stroke-width="1.5" stroke-linecap="round" stroke-linejoin="round"/>
<path d="M13.7143 3.4231V5.11941" stroke="#1E3862" stroke-width="1.5" stroke-linecap="round" stroke-linejoin="round"/>
</svg>
