<svg width="34" height="34" viewBox="0 0 34 34" fill="none" xmlns="http://www.w3.org/2000/svg">
<rect width="34" height="34" rx="6" fill="#F3F7FF"/>
<path d="M26.4939 11.6681C26.3096 13.6171 25.8034 15.2802 25.3243 16.4341C24.9516 17.3314 24.1687 17.9639 23.2151 18.1505C22.2381 18.3418 20.7574 18.5337 18.7492 18.5337C17.336 18.5337 16.1394 18.4387 15.1826 18.3157C13.4984 18.0993 12.3107 16.7218 12.0398 15.0455L11.2478 10.1445H25.041C25.8835 10.1445 26.5732 10.8295 26.4939 11.6681Z" stroke="#1E3862" stroke-width="2" stroke-linecap="round" stroke-linejoin="round"/>
<path d="M24.2783 22.3474H15.8156C14.3193 22.3474 13.0439 21.262 12.8044 19.785L11.3474 10.8006C11.1079 9.32355 9.83247 8.23828 8.33617 8.23828H7.5" stroke="#1E3862" stroke-width="2" stroke-linecap="round" stroke-linejoin="round"/>
<path d="M14.1404 25.7616C15.0831 25.7616 15.8474 24.9974 15.8474 24.0546C15.8474 23.1118 15.0831 22.3477 14.1404 22.3477C13.1976 22.3477 12.4333 23.1118 12.4333 24.0546C12.4333 24.9974 13.1976 25.7616 14.1404 25.7616Z" stroke="#1E3862" stroke-width="2" stroke-linecap="round" stroke-linejoin="round"/>
<path d="M24.2782 25.7616C25.221 25.7616 25.9852 24.9974 25.9852 24.0546C25.9852 23.1118 25.221 22.3477 24.2782 22.3477C23.3355 22.3477 22.5713 23.1118 22.5713 24.0546C22.5713 24.9974 23.3355 25.7616 24.2782 25.7616Z" stroke="#1E3862" stroke-width="2" stroke-linecap="round" stroke-linejoin="round"/>
</svg>
