<svg width="22" height="22" viewBox="0 0 22 22" fill="none" xmlns="http://www.w3.org/2000/svg">
<path d="M20.4991 10.0499C20.4905 7.09132 20.3969 5.52284 19.387 4.51289C18.2741 3.3999 16.4826 3.3999 12.9 3.3999H9.1C5.51732 3.3999 3.72599 3.3999 2.61299 4.51289C1.5 5.62589 1.5 7.41722 1.5 10.9999C1.5 14.5825 1.5 16.374 2.61299 17.4869C3.72599 18.5999 5.51732 18.5999 9.1 18.5999H10.525" stroke="#1E3862" stroke-width="1.5" stroke-linecap="round"/>
<path d="M14.325 12.8999V18.5999M14.325 18.5999L16.225 16.6999M14.325 18.5999L12.425 16.6999M18.6 18.5999V12.8999M18.6 12.8999L20.5 14.7999M18.6 12.8999L16.7 14.7999" stroke="#1E3862" stroke-width="1.5" stroke-linecap="round" stroke-linejoin="round"/>
<path d="M9.09997 14.7998H5.29997" stroke="#1E3862" stroke-width="1.5" stroke-linecap="round"/>
<path d="M1.5 9.09985H20.5" stroke="#1E3862" stroke-width="1.5" stroke-linecap="round"/>
</svg>
