<svg width="22" height="22" viewBox="0 0 22 22" fill="none" xmlns="http://www.w3.org/2000/svg">
<g clip-path="url(#clip0_3515_54030)">
<path d="M4.5 5.5C4.5 6.56087 4.92143 7.57829 5.67157 8.32843C6.42172 9.07858 7.43913 9.50001 8.5 9.50001C9.56087 9.50001 10.5783 9.07858 11.3284 8.32843C12.0786 7.57829 12.5 6.56087 12.5 5.5C12.5 4.43914 12.0786 3.42172 11.3284 2.67157C10.5783 1.92143 9.56087 1.5 8.5 1.5C7.43913 1.5 6.42172 1.92143 5.67157 2.67157C4.92143 3.42172 4.5 4.43914 4.5 5.5Z" stroke="#1E3862" stroke-width="1.5"/>
<path d="M14.5 8.50001C16.1569 8.50001 17.5 7.15685 17.5 5.5C17.5 3.84315 16.1569 2.5 14.5 2.5" stroke="#1E3862" stroke-width="1.5" stroke-linecap="round"/>
<path d="M1.5 16.5C1.5 17.5609 2.2375 18.5783 3.55025 19.3284C4.86301 20.0786 6.64348 20.5 8.5 20.5C10.3565 20.5 12.137 20.0786 13.4497 19.3284C14.7625 18.5783 15.5 17.5609 15.5 16.5C15.5 15.4391 14.7625 14.4217 13.4497 13.6716C12.137 12.9214 10.3565 12.5 8.5 12.5C6.64348 12.5 4.86301 12.9214 3.55025 13.6716C2.2375 14.4217 1.5 15.4391 1.5 16.5Z" stroke="#1E3862" stroke-width="1.5"/>
<path d="M17.5 13.5C19.2542 13.8847 20.5 14.8589 20.5 16C20.5 17.0293 19.4863 17.9229 18 18.3704" stroke="#1E3862" stroke-width="1.5" stroke-linecap="round"/>
</g>
<defs>
<clipPath id="clip0_3515_54030">
<rect width="22" height="22" fill="white"/>
</clipPath>
</defs>
</svg>
